<svg xmlns="http://www.w3.org/2000/svg" width="25" height="25" viewBox="0 0 25 25">
  <g id="Group_19159" data-name="Group 19159" transform="translate(-1610 -823)">
    <rect id="Rectangle_11210" data-name="Rectangle 11210" width="25" height="25" transform="translate(1610 823)" fill="none"/>
    <g id="Icon_feather-eye-off" data-name="Icon feather-eye-off" transform="translate(1612 825)">
      <path id="Path_3" data-name="Path 3" d="M17.451,19.126a9.482,9.482,0,0,1-5.593,1.94C5.266,21.066,1.5,13.533,1.5,13.533A17.373,17.373,0,0,1,6.265,7.94M9.88,6.226A8.588,8.588,0,0,1,11.858,6c6.591,0,10.358,7.533,10.358,7.533a17.42,17.42,0,0,1-2.034,3m-6.328-1.008a2.825,2.825,0,1,1-3.992-3.992" transform="translate(-1.5 -3.175)" fill="none" stroke="#777777" stroke-linecap="round" stroke-linejoin="round" stroke-width="2"/>
      <path id="Path_4" data-name="Path 4" d="M1.5,1.5,22.216,22.216" transform="translate(-1.5 -1.5)" fill="none" stroke="#777777" stroke-linecap="round" stroke-linejoin="round" stroke-width="2"/>
    </g>
  </g>
</svg>
